%TF.GenerationSoftware,KiCad,Pcbnew,10.0.4-1.fc44app2*%
%TF.CreationDate,2026-07-11T21:40:20+01:00*%
%TF.ProjectId,nucleo_shield_pcb,6e75636c-656f-45f7-9368-69656c645f70,rev?*%
%TF.SameCoordinates,Original*%
%TF.FileFunction,Copper,L2,Bot*%
%TF.FilePolarity,Positive*%
%FSLAX46Y46*%
G04 Gerber Fmt 4.6, Leading zero omitted, Abs format (unit mm)*
G04 Created by KiCad (PCBNEW 10.0.4-1.fc44app2) date 2026-07-11 21:40:20*
%MOMM*%
%LPD*%
G01*
G04 APERTURE LIST*
G04 Aperture macros list*
%AMRoundRect*
0 Rectangle with rounded corners*
0 $1 Rounding radius*
0 $2 $3 $4 $5 $6 $7 $8 $9 X,Y pos of 4 corners*
0 Add a 4 corners polygon primitive as box body*
4,1,4,$2,$3,$4,$5,$6,$7,$8,$9,$2,$3,0*
0 Add four circle primitives for the rounded corners*
1,1,$1+$1,$2,$3*
1,1,$1+$1,$4,$5*
1,1,$1+$1,$6,$7*
1,1,$1+$1,$8,$9*
0 Add four rect primitives between the rounded corners*
20,1,$1+$1,$2,$3,$4,$5,0*
20,1,$1+$1,$4,$5,$6,$7,0*
20,1,$1+$1,$6,$7,$8,$9,0*
20,1,$1+$1,$8,$9,$2,$3,0*%
G04 Aperture macros list end*
%TA.AperFunction,ComponentPad*%
%ADD10C,3.000000*%
%TD*%
%TA.AperFunction,ComponentPad*%
%ADD11C,1.508000*%
%TD*%
%TA.AperFunction,ComponentPad*%
%ADD12R,1.508000X1.508000*%
%TD*%
%TA.AperFunction,ComponentPad*%
%ADD13C,1.530000*%
%TD*%
%TA.AperFunction,ComponentPad*%
%ADD14R,1.000000X1.000000*%
%TD*%
%TA.AperFunction,ComponentPad*%
%ADD15C,1.000000*%
%TD*%
%TA.AperFunction,ComponentPad*%
%ADD16RoundRect,0.250000X0.550000X0.550000X-0.550000X0.550000X-0.550000X-0.550000X0.550000X-0.550000X0*%
%TD*%
%TA.AperFunction,ComponentPad*%
%ADD17C,1.600000*%
%TD*%
%TA.AperFunction,ComponentPad*%
%ADD18R,1.700000X1.700000*%
%TD*%
%TA.AperFunction,ComponentPad*%
%ADD19C,1.700000*%
%TD*%
%TA.AperFunction,ComponentPad*%
%ADD20R,1.524000X1.524000*%
%TD*%
%TA.AperFunction,ComponentPad*%
%ADD21O,3.048000X1.524000*%
%TD*%
%TA.AperFunction,ComponentPad*%
%ADD22R,0.850000X0.850000*%
%TD*%
%TA.AperFunction,ComponentPad*%
%ADD23C,0.850000*%
%TD*%
%TA.AperFunction,ComponentPad*%
%ADD24C,1.524000*%
%TD*%
%TA.AperFunction,ComponentPad*%
%ADD25RoundRect,0.250000X-0.625000X0.350000X-0.625000X-0.350000X0.625000X-0.350000X0.625000X0.350000X0*%
%TD*%
%TA.AperFunction,ComponentPad*%
%ADD26O,1.750000X1.200000*%
%TD*%
%TA.AperFunction,ViaPad*%
%ADD27C,0.600000*%
%TD*%
%TA.AperFunction,Conductor*%
%ADD28C,0.200000*%
%TD*%
G04 APERTURE END LIST*
D10*
%TO.P,U4,S4*%
%TO.N,N/C*%
X163500000Y-42000000D03*
%TO.P,U4,S3*%
X141500000Y-42000000D03*
D11*
%TO.P,U4,4,SDA_4*%
%TO.N,/SDA*%
X148690000Y-64500000D03*
%TO.P,U4,3,SCL_3*%
%TO.N,/SCL*%
X151230000Y-64500000D03*
%TO.P,U4,2,VCC_IN_2*%
%TO.N,+3V3*%
X153770000Y-64500000D03*
D12*
%TO.P,U4,1,GND_1*%
%TO.N,GNDD*%
X156310000Y-64500000D03*
%TD*%
D13*
%TO.P,U3,1,VCC_1*%
%TO.N,+5V*%
X148783456Y-109077753D03*
%TO.P,U3,2,TRIG_2*%
%TO.N,Net-(J2-Pin_23)*%
X151323456Y-109077753D03*
%TO.P,U3,3,ECHO_3*%
%TO.N,Net-(J2-Pin_19)*%
X153863456Y-109077753D03*
%TO.P,U3,4,GND_4*%
%TO.N,GNDD*%
X156403456Y-109077753D03*
%TD*%
D14*
%TO.P,J6,1,Pin_1_1*%
%TO.N,Net-(J2-Pin_15)*%
X164650000Y-109500000D03*
D15*
%TO.P,J6,2,Pin_2_2*%
%TO.N,Net-(J2-Pin_24)*%
X165920000Y-109500000D03*
%TO.P,J6,3,Pin_3_3*%
%TO.N,Net-(J2-Pin_26)*%
X167190000Y-109500000D03*
%TO.P,J6,4,Pin_4_4*%
%TO.N,Net-(J2-Pin_28)*%
X168460000Y-109500000D03*
%TO.P,J6,5,Pin_5_5*%
%TO.N,Net-(J2-Pin_30)*%
X169730000Y-109500000D03*
%TO.P,J6,6,Pin_6_6*%
%TO.N,Net-(J2-Pin_13)*%
X171000000Y-109500000D03*
%TD*%
D16*
%TO.P,D2,1,K_1*%
%TO.N,RESET*%
X175810000Y-89500000D03*
D17*
%TO.P,D2,2,A_2*%
%TO.N,/reset*%
X168190000Y-89500000D03*
%TD*%
D18*
%TO.P,J3,1,Pin_1_1*%
%TO.N,E5V*%
X134000000Y-68960000D03*
D19*
%TO.P,J3,2,Pin_2_2*%
%TO.N,GNDD*%
X134000000Y-71500000D03*
%TD*%
D20*
%TO.P,U1,P$1,GND@1_P$1*%
%TO.N,/reset*%
X163860000Y-88500000D03*
D21*
%TO.P,U1,P$2,GPIO1_P$2*%
%TO.N,/rx{slash}tx*%
X163860000Y-85960000D03*
%TO.P,U1,P$3,GPIO3_P$3*%
%TO.N,/tx{slash}rx*%
X163860000Y-83420000D03*
%TO.P,U1,P$4,3V3/5V_P$4*%
%TO.N,unconnected-(U1-3V3{slash}5V-PadP$4)*%
X163860000Y-80880000D03*
D20*
%TO.P,U1,P$5,GND@2_P$5*%
%TO.N,GNDD*%
X163860000Y-78340000D03*
D21*
%TO.P,U1,P$6,GPIO0_P$6*%
%TO.N,unconnected-(U1-GPIO0-PadP$6)*%
X163860000Y-75800000D03*
%TO.P,U1,P$7,GPIO16_P$7*%
%TO.N,unconnected-(U1-GPIO16-PadP$7)*%
X163860000Y-73260000D03*
%TO.P,U1,P$8,3V3_P$8*%
%TO.N,unconnected-(U1-3V3-PadP$8)*%
X163860000Y-70720000D03*
%TO.P,U1,P$9,5V_P$9*%
%TO.N,+5V*%
X141000000Y-70720000D03*
D20*
%TO.P,U1,P$10,GND@3_P$10*%
%TO.N,GNDD*%
X141000000Y-73260000D03*
D21*
%TO.P,U1,P$11,GPIO12_P$11*%
%TO.N,unconnected-(U1-GPIO12-PadP$11)*%
X141000000Y-75800000D03*
%TO.P,U1,P$12,GPIO13_P$12*%
%TO.N,unconnected-(U1-GPIO13-PadP$12)*%
X141000000Y-78340000D03*
%TO.P,U1,P$13,GPIO15_P$13*%
%TO.N,Net-(U1-GPIO15)*%
X141000000Y-80880000D03*
%TO.P,U1,P$14,GPIO14_P$14*%
%TO.N,Net-(J2-Pin_2)*%
X141000000Y-83420000D03*
%TO.P,U1,P$15,GPIO2_P$15*%
%TO.N,unconnected-(U1-GPIO2-PadP$15)*%
X141000000Y-85960000D03*
%TO.P,U1,P$16,GPIO4_P$16*%
%TO.N,unconnected-(U1-GPIO4-PadP$16)*%
X141000000Y-88500000D03*
%TD*%
D22*
%TO.P,J5,1,Pin_1_1*%
%TO.N,E5V*%
X173500000Y-109500000D03*
D23*
%TO.P,J5,2,Pin_2_2*%
%TO.N,GNDD*%
X174500000Y-109500000D03*
%TO.P,J5,3,Pin_3_3*%
%TO.N,+5V*%
X175500000Y-109500000D03*
%TD*%
D18*
%TO.P,J2,1,Pin_1_1*%
%TO.N,unconnected-(J2-Pin_1-Pad1)*%
X181610000Y-60960000D03*
D19*
%TO.P,J2,2,Pin_2_2*%
%TO.N,Net-(J2-Pin_2)*%
X184150000Y-60960000D03*
%TO.P,J2,3,Pin_3_3*%
%TO.N,/SCL*%
X181610000Y-63500000D03*
%TO.P,J2,4,Pin_4_4*%
%TO.N,unconnected-(J2-Pin_4-Pad4)*%
X184150000Y-63500000D03*
%TO.P,J2,5,Pin_5_5*%
%TO.N,/SDA*%
X181610000Y-66040000D03*
%TO.P,J2,6,Pin_6_6*%
%TO.N,unconnected-(J2-Pin_6-Pad6)*%
X184150000Y-66040000D03*
%TO.P,J2,7,Pin_7_7*%
%TO.N,AVDD*%
X181610000Y-68580000D03*
%TO.P,J2,8,Pin_8_8*%
%TO.N,U5V*%
X184150000Y-68580000D03*
%TO.P,J2,9,Pin_9_9*%
%TO.N,GNDD*%
X181610000Y-71120000D03*
%TO.P,J2,10,Pin_10_10*%
%TO.N,unconnected-(J2-Pin_10-Pad10)*%
X184150000Y-71120000D03*
%TO.P,J2,11,Pin_11_11*%
%TO.N,unconnected-(J2-Pin_11-Pad11)*%
X181610000Y-73660000D03*
%TO.P,J2,12,Pin_12_12*%
%TO.N,unconnected-(J2-Pin_12-Pad12)*%
X184150000Y-73660000D03*
%TO.P,J2,13,Pin_13_13*%
%TO.N,Net-(J2-Pin_13)*%
X181610000Y-76200000D03*
%TO.P,J2,14,Pin_14_14*%
%TO.N,unconnected-(J2-Pin_14-Pad14)*%
X184150000Y-76200000D03*
%TO.P,J2,15,Pin_15_15*%
%TO.N,Net-(J2-Pin_15)*%
X181610000Y-78740000D03*
%TO.P,J2,16,Pin_16_16*%
%TO.N,unconnected-(J2-Pin_16-Pad16)*%
X184150000Y-78740000D03*
%TO.P,J2,17,Pin_17_17*%
%TO.N,/tx{slash}rx*%
X181610000Y-81280000D03*
%TO.P,J2,18,Pin_18_18*%
%TO.N,unconnected-(J2-Pin_18-Pad18)*%
X184150000Y-81280000D03*
%TO.P,J2,19,Pin_19_19*%
%TO.N,Net-(J2-Pin_19)*%
X181610000Y-83820000D03*
%TO.P,J2,20,Pin_20_20*%
%TO.N,GNDD*%
X184150000Y-83820000D03*
%TO.P,J2,21,Pin_21_21*%
%TO.N,unconnected-(J2-Pin_21-Pad21)*%
X181610000Y-86360000D03*
%TO.P,J2,22,Pin_22_22*%
%TO.N,unconnected-(J2-Pin_22-Pad22)*%
X184150000Y-86360000D03*
%TO.P,J2,23,Pin_23_23*%
%TO.N,Net-(J2-Pin_23)*%
X181610000Y-88900000D03*
%TO.P,J2,24,Pin_24_24*%
%TO.N,Net-(J2-Pin_24)*%
X184150000Y-88900000D03*
%TO.P,J2,25,Pin_25_25*%
%TO.N,unconnected-(J2-Pin_25-Pad25)*%
X181610000Y-91440000D03*
%TO.P,J2,26,Pin_26_26*%
%TO.N,Net-(J2-Pin_26)*%
X184150000Y-91440000D03*
%TO.P,J2,27,Pin_27_27*%
%TO.N,unconnected-(J2-Pin_27-Pad27)*%
X181610000Y-93980000D03*
%TO.P,J2,28,Pin_28_28*%
%TO.N,Net-(J2-Pin_28)*%
X184150000Y-93980000D03*
%TO.P,J2,29,Pin_29_29*%
%TO.N,unconnected-(J2-Pin_29-Pad29)*%
X181610000Y-96520000D03*
%TO.P,J2,30,Pin_30_30*%
%TO.N,Net-(J2-Pin_30)*%
X184150000Y-96520000D03*
%TO.P,J2,31,Pin_31_31*%
%TO.N,unconnected-(J2-Pin_31-Pad31)*%
X181610000Y-99060000D03*
%TO.P,J2,32,Pin_32_32*%
%TO.N,AGND*%
X184150000Y-99060000D03*
%TO.P,J2,33,Pin_33_33*%
%TO.N,/rx{slash}tx*%
X181610000Y-101600000D03*
%TO.P,J2,34,Pin_34_34*%
%TO.N,unconnected-(J2-Pin_34-Pad34)*%
X184150000Y-101600000D03*
%TO.P,J2,35,Pin_35_35*%
%TO.N,unconnected-(J2-Pin_35-Pad35)*%
X181610000Y-104140000D03*
%TO.P,J2,36,Pin_36_36*%
%TO.N,unconnected-(J2-Pin_36-Pad36)*%
X184150000Y-104140000D03*
%TO.P,J2,37,Pin_37_37*%
%TO.N,unconnected-(J2-Pin_37-Pad37)*%
X181610000Y-106680000D03*
%TO.P,J2,38,Pin_38_38*%
%TO.N,unconnected-(J2-Pin_38-Pad38)*%
X184150000Y-106680000D03*
%TD*%
D20*
%TO.P,U2,1,GND_1*%
%TO.N,GNDD*%
X161620000Y-105000000D03*
D24*
%TO.P,U2,2,VCC_2*%
%TO.N,+3V3*%
X159080000Y-105000000D03*
%TO.P,U2,3,CS_3*%
X156540000Y-105000000D03*
%TO.P,U2,4,INT1_4*%
%TO.N,unconnected-(U2-INT1-Pad4)*%
X154000000Y-105000000D03*
%TO.P,U2,5,INT2_5*%
%TO.N,unconnected-(U2-INT2-Pad5)*%
X151460000Y-105000000D03*
%TO.P,U2,6,SDO_6*%
%TO.N,GNDD*%
X148920000Y-105000000D03*
%TO.P,U2,7,SDA_7*%
%TO.N,/SDA*%
X146380000Y-105000000D03*
%TO.P,U2,8,SCL_8*%
%TO.N,/SCL*%
X143840000Y-105000000D03*
%TD*%
D18*
%TO.P,J1,1,Pin_1_1*%
%TO.N,unconnected-(J1-Pin_1-Pad1)*%
X120650000Y-60960000D03*
D19*
%TO.P,J1,2,Pin_2_2*%
%TO.N,unconnected-(J1-Pin_2-Pad2)*%
X123190000Y-60960000D03*
%TO.P,J1,3,Pin_3_3*%
%TO.N,unconnected-(J1-Pin_3-Pad3)*%
X120650000Y-63500000D03*
%TO.P,J1,4,Pin_4_4*%
%TO.N,unconnected-(J1-Pin_4-Pad4)*%
X123190000Y-63500000D03*
%TO.P,J1,5,Pin_5_5*%
%TO.N,VDD*%
X120650000Y-66040000D03*
%TO.P,J1,6,Pin_6_6*%
%TO.N,E5V*%
X123190000Y-66040000D03*
%TO.P,J1,7,Pin_7_7*%
%TO.N,BOOT0*%
X120650000Y-68580000D03*
%TO.P,J1,8,Pin_8_8*%
%TO.N,GNDD*%
X123190000Y-68580000D03*
%TO.P,J1,9,Pin_9_9*%
%TO.N,unconnected-(J1-Pin_9-Pad9)*%
X120650000Y-71120000D03*
%TO.P,J1,10,Pin_10_10*%
%TO.N,unconnected-(J1-Pin_10-Pad10)*%
X123190000Y-71120000D03*
%TO.P,J1,11,Pin_11_11*%
%TO.N,unconnected-(J1-Pin_11-Pad11)*%
X120650000Y-73660000D03*
%TO.P,J1,12,Pin_12_12*%
%TO.N,IOREF*%
X123190000Y-73660000D03*
%TO.P,J1,13,Pin_13_13*%
%TO.N,unconnected-(J1-Pin_13-Pad13)*%
X120650000Y-76200000D03*
%TO.P,J1,14,Pin_14_14*%
%TO.N,RESET*%
X123190000Y-76200000D03*
%TO.P,J1,15,Pin_15_15*%
%TO.N,unconnected-(J1-Pin_15-Pad15)*%
X120650000Y-78740000D03*
%TO.P,J1,16,Pin_16_16*%
%TO.N,+3V3*%
X123190000Y-78740000D03*
%TO.P,J1,17,Pin_17_17*%
%TO.N,unconnected-(J1-Pin_17-Pad17)*%
X120650000Y-81280000D03*
%TO.P,J1,18,Pin_18_18*%
%TO.N,+5V*%
X123190000Y-81280000D03*
%TO.P,J1,19,Pin_19_19*%
%TO.N,GNDD*%
X120650000Y-83820000D03*
%TO.P,J1,20,Pin_20_20*%
X123190000Y-83820000D03*
%TO.P,J1,21,Pin_21_21*%
%TO.N,unconnected-(J1-Pin_21-Pad21)*%
X120650000Y-86360000D03*
%TO.P,J1,22,Pin_22_22*%
%TO.N,GNDD*%
X123190000Y-86360000D03*
%TO.P,J1,23,Pin_23_23*%
%TO.N,Net-(J1-Pin_23)*%
X120650000Y-88900000D03*
%TO.P,J1,24,Pin_24_24*%
%TO.N,VIN*%
X123190000Y-88900000D03*
%TO.P,J1,25,Pin_25_25*%
%TO.N,unconnected-(J1-Pin_25-Pad25)*%
X120650000Y-91440000D03*
%TO.P,J1,26,Pin_26_26*%
%TO.N,unconnected-(J1-Pin_26-Pad26)*%
X123190000Y-91440000D03*
%TO.P,J1,27,Pin_27_27*%
%TO.N,unconnected-(J1-Pin_27-Pad27)*%
X120650000Y-93980000D03*
%TO.P,J1,28,Pin_28_28*%
%TO.N,unconnected-(J1-Pin_28-Pad28)*%
X123190000Y-93980000D03*
%TO.P,J1,29,Pin_29_29*%
%TO.N,unconnected-(J1-Pin_29-Pad29)*%
X120650000Y-96520000D03*
%TO.P,J1,30,Pin_30_30*%
%TO.N,unconnected-(J1-Pin_30-Pad30)*%
X123190000Y-96520000D03*
%TO.P,J1,31,Pin_31_31*%
%TO.N,unconnected-(J1-Pin_31-Pad31)*%
X120650000Y-99060000D03*
%TO.P,J1,32,Pin_32_32*%
%TO.N,unconnected-(J1-Pin_32-Pad32)*%
X123190000Y-99060000D03*
%TO.P,J1,33,Pin_33_33*%
%TO.N,VBAT*%
X120650000Y-101600000D03*
%TO.P,J1,34,Pin_34_34*%
%TO.N,unconnected-(J1-Pin_34-Pad34)*%
X123190000Y-101600000D03*
%TO.P,J1,35,Pin_35_35*%
%TO.N,unconnected-(J1-Pin_35-Pad35)*%
X120650000Y-104140000D03*
%TO.P,J1,36,Pin_36_36*%
%TO.N,unconnected-(J1-Pin_36-Pad36)*%
X123190000Y-104140000D03*
%TO.P,J1,37,Pin_37_37*%
%TO.N,unconnected-(J1-Pin_37-Pad37)*%
X120650000Y-106680000D03*
%TO.P,J1,38,Pin_38_38*%
%TO.N,unconnected-(J1-Pin_38-Pad38)*%
X123190000Y-106680000D03*
%TD*%
D25*
%TO.P,J4,1,Pin_1_1*%
%TO.N,GNDD*%
X135500000Y-78000000D03*
D26*
%TO.P,J4,2,Pin_2_2*%
%TO.N,+3V3*%
X135500000Y-80000000D03*
%TO.P,J4,3,Pin_3_3*%
%TO.N,/SDA*%
X135500000Y-82000000D03*
%TO.P,J4,4,Pin_4_4*%
%TO.N,/SCL*%
X135500000Y-84000000D03*
%TD*%
D27*
%TO.N,+3V3*%
X132500000Y-79500000D03*
%TO.N,+5V*%
X123190000Y-81280000D03*
X127500000Y-86000000D03*
X127500000Y-86000000D03*
%TO.N,Net-(J2-Pin_15)*%
X167000000Y-105500000D03*
%TO.N,Net-(U1-GPIO15)*%
X132000000Y-87000000D03*
X132000000Y-87000000D03*
X137000000Y-86000000D03*
X130000000Y-95000000D03*
X130000000Y-98000000D03*
X132000000Y-87000000D03*
X137000000Y-86000000D03*
X130000000Y-95000000D03*
%TO.N,Net-(J1-Pin_23)*%
X167500000Y-66500000D03*
X167000000Y-73500000D03*
%TD*%
%TO.N,+3V3*%
D28*
X135500000Y-80000000D02*
X134000000Y-80000000D01*
X156540000Y-105000000D02*
X156540000Y-101776105D01*
X156540000Y-101776105D02*
X142201895Y-87438000D01*
X142201895Y-87438000D02*
X140214105Y-87438000D01*
X140214105Y-87438000D02*
X138776105Y-86000000D01*
X137248529Y-85400000D02*
X136751471Y-85400000D01*
X136751471Y-85400000D02*
X136400000Y-85751471D01*
X138776105Y-86000000D02*
X137600000Y-86000000D01*
X137600000Y-86000000D02*
X137600000Y-85751471D01*
X137600000Y-85751471D02*
X137248529Y-85400000D01*
X135500000Y-86000000D02*
X134000000Y-84500000D01*
X136400000Y-85751471D02*
X136400000Y-86000000D01*
X136400000Y-86000000D02*
X135500000Y-86000000D01*
X134000000Y-84500000D02*
X134000000Y-80000000D01*
%TO.N,GNDD*%
X141000000Y-73260000D02*
X135760000Y-73260000D01*
X157542247Y-109077753D02*
X156403456Y-109077753D01*
X135760000Y-73260000D02*
X134000000Y-71500000D01*
X161620000Y-105000000D02*
X157542247Y-109077753D01*
%TO.N,+3V3*%
X133000000Y-80000000D02*
X132500000Y-79500000D01*
X134000000Y-80000000D02*
X133000000Y-80000000D01*
%TO.N,+5V*%
X148480105Y-106062000D02*
X147858000Y-105439895D01*
X137630000Y-67350000D02*
X133023654Y-67350000D01*
X147858000Y-104858000D02*
X129000000Y-86000000D01*
X124340000Y-80130000D02*
X123190000Y-81280000D01*
X124340000Y-76033654D02*
X124340000Y-80130000D01*
X148783456Y-109077753D02*
X148783456Y-106062000D01*
X141000000Y-70720000D02*
X137630000Y-67350000D01*
X129000000Y-86000000D02*
X127500000Y-86000000D01*
X148783456Y-106062000D02*
X148480105Y-106062000D01*
X147858000Y-105439895D02*
X147858000Y-104858000D01*
X133023654Y-67350000D02*
X124340000Y-76033654D01*
%TO.N,Net-(J2-Pin_23)*%
X180100000Y-88900000D02*
X181610000Y-88900000D01*
X158857247Y-110142753D02*
X180100000Y-88900000D01*
X151323456Y-109077753D02*
X152388456Y-110142753D01*
X152388456Y-110142753D02*
X158857247Y-110142753D01*
%TO.N,Net-(J2-Pin_19)*%
X175030000Y-84970000D02*
X180460000Y-84970000D01*
X157602000Y-105339209D02*
X158000000Y-104941209D01*
X180460000Y-84970000D02*
X181610000Y-83820000D01*
X157602000Y-105439895D02*
X157602000Y-105339209D01*
X158000000Y-102000000D02*
X175030000Y-84970000D01*
X156979895Y-106062000D02*
X157602000Y-105439895D01*
X156879209Y-106062000D02*
X156979895Y-106062000D01*
X158000000Y-103938000D02*
X158000000Y-102000000D01*
X153863456Y-109077753D02*
X156879209Y-106062000D01*
X158000000Y-104941209D02*
X158000000Y-103000000D01*
%TO.N,Net-(J2-Pin_15)*%
X182086346Y-90050000D02*
X182760000Y-89376346D01*
X180450000Y-90050000D02*
X182086346Y-90050000D01*
X167000000Y-103500000D02*
X180450000Y-90050000D01*
X167000000Y-105500000D02*
X167000000Y-103500000D01*
X182760000Y-89376346D02*
X182760000Y-79890000D01*
X182760000Y-79890000D02*
X181610000Y-78740000D01*
%TO.N,Net-(J2-Pin_24)*%
X182086346Y-92590000D02*
X182760000Y-91916346D01*
X167600000Y-105400000D02*
X180410000Y-92590000D01*
X182760000Y-90290000D02*
X184150000Y-88900000D01*
X167600000Y-107820000D02*
X167600000Y-105400000D01*
X180410000Y-92590000D02*
X182086346Y-92590000D01*
X182760000Y-91916346D02*
X182760000Y-90290000D01*
X165920000Y-109500000D02*
X167600000Y-107820000D01*
%TO.N,Net-(J2-Pin_26)*%
X167190000Y-109500000D02*
X178780000Y-97910000D01*
X181846346Y-97910000D02*
X183000000Y-96756346D01*
X183000000Y-96756346D02*
X183000000Y-92590000D01*
X178780000Y-97910000D02*
X181846346Y-97910000D01*
X183000000Y-92590000D02*
X184150000Y-91440000D01*
%TO.N,Net-(J2-Pin_28)*%
X182760000Y-99536346D02*
X181846346Y-100450000D01*
X177510000Y-100450000D02*
X168460000Y-109500000D01*
X185300000Y-96996346D02*
X184626346Y-97670000D01*
X181846346Y-100450000D02*
X177510000Y-100450000D01*
X185300000Y-95130000D02*
X185300000Y-96996346D01*
X184626346Y-97670000D02*
X183673654Y-97670000D01*
X184150000Y-93980000D02*
X185300000Y-95130000D01*
X183673654Y-97670000D02*
X182760000Y-98583654D01*
X182760000Y-98583654D02*
X182760000Y-99536346D01*
%TO.N,Net-(J2-Pin_13)*%
X182760000Y-77350000D02*
X181610000Y-76200000D01*
X184626346Y-80130000D02*
X183673654Y-80130000D01*
X182760000Y-101123654D02*
X183673654Y-100210000D01*
X185700000Y-81203654D02*
X184626346Y-80130000D01*
X182086346Y-102750000D02*
X182760000Y-102076346D01*
X183673654Y-100210000D02*
X184626346Y-100210000D01*
X182760000Y-79216346D02*
X182760000Y-77350000D01*
X177750000Y-102750000D02*
X182086346Y-102750000D01*
X185700000Y-99136346D02*
X185700000Y-81203654D01*
X183673654Y-80130000D02*
X182760000Y-79216346D01*
X182760000Y-102076346D02*
X182760000Y-101123654D01*
X171000000Y-109500000D02*
X177750000Y-102750000D01*
X184626346Y-100210000D02*
X185700000Y-99136346D01*
%TO.N,Net-(U1-GPIO15)*%
X130000000Y-98000000D02*
X130000000Y-95000000D01*
X136000000Y-87000000D02*
X137000000Y-86000000D01*
X132000000Y-87000000D02*
X136000000Y-87000000D01*
%TO.N,Net-(J1-Pin_23)*%
X166178000Y-74322000D02*
X167000000Y-73500000D01*
X167500000Y-73000000D02*
X167000000Y-73500000D01*
X167500000Y-66500000D02*
X167500000Y-73000000D01*
X131900000Y-79251471D02*
X136829471Y-74322000D01*
X136829471Y-74322000D02*
X166178000Y-74322000D01*
X121800000Y-87750000D02*
X123898529Y-87750000D01*
X120650000Y-88900000D02*
X121800000Y-87750000D01*
X131900000Y-79748529D02*
X131900000Y-79251471D01*
X123898529Y-87750000D02*
X131900000Y-79748529D01*
%TO.N,E5V*%
X183673654Y-77590000D02*
X182760000Y-76676346D01*
X184626346Y-102750000D02*
X186100000Y-101276346D01*
X136822000Y-71782000D02*
X160534105Y-71782000D01*
X186100000Y-79063654D02*
X184626346Y-77590000D01*
X182086346Y-105290000D02*
X182760000Y-104616346D01*
X182760000Y-76676346D02*
X182760000Y-75723654D01*
X186100000Y-101276346D02*
X186100000Y-79063654D01*
X182760000Y-103663654D02*
X183673654Y-102750000D01*
X183673654Y-102750000D02*
X184626346Y-102750000D01*
X182760000Y-104616346D02*
X182760000Y-103663654D01*
X184626346Y-77590000D02*
X183673654Y-77590000D01*
X182086346Y-75050000D02*
X176898529Y-75050000D01*
X173500000Y-109500000D02*
X173500000Y-107565686D01*
X160534105Y-71782000D02*
X166416105Y-65900000D01*
X134000000Y-68960000D02*
X136822000Y-71782000D01*
X173500000Y-107565686D02*
X175775686Y-105290000D01*
X175775686Y-105290000D02*
X182086346Y-105290000D01*
X182760000Y-75723654D02*
X182086346Y-75050000D01*
X176898529Y-75050000D02*
X167748529Y-65900000D01*
X166416105Y-65900000D02*
X167748529Y-65900000D01*
%TD*%
M02*
