%TF.GenerationSoftware,KiCad,Pcbnew,10.0.4-1.fc44app2*%
%TF.CreationDate,2026-07-11T21:40:21+01:00*%
%TF.ProjectId,nucleo_shield_pcb,6e75636c-656f-45f7-9368-69656c645f70,rev?*%
%TF.SameCoordinates,Original*%
%TF.FileFunction,Profile,NP*%
%FSLAX46Y46*%
G04 Gerber Fmt 4.6, Leading zero omitted, Abs format (unit mm)*
G04 Created by KiCad (PCBNEW 10.0.4-1.fc44app2) date 2026-07-11 21:40:21*
%MOMM*%
%LPD*%
G01*
G04 APERTURE LIST*
%TA.AperFunction,Profile*%
%ADD10C,0.050000*%
%TD*%
G04 APERTURE END LIST*
D10*
X117400000Y-56720000D02*
X117400000Y-107720000D01*
X117400000Y-56720000D02*
G75*
G02*
X119400000Y-54720000I2000000J0D01*
G01*
X119400000Y-54720000D02*
X135160000Y-54720000D01*
X119400000Y-109720000D02*
G75*
G02*
X117400000Y-107720000I0J2000000D01*
G01*
X119400000Y-109720000D02*
X128900000Y-109720000D01*
X128900000Y-109720000D02*
X130900000Y-111720000D01*
X130900000Y-111720000D02*
X182500000Y-111720000D01*
X135160000Y-54720000D02*
G75*
G02*
X137160000Y-56720000I0J-2000000D01*
G01*
X137160000Y-56720000D02*
X137160000Y-60230000D01*
X139160000Y-62230000D02*
G75*
G02*
X137160000Y-60230000I0J2000000D01*
G01*
X139160000Y-62230000D02*
X165640000Y-62230000D01*
X167640000Y-56720000D02*
X167640000Y-60230000D01*
X167640000Y-56720000D02*
G75*
G02*
X169640000Y-54720000I2000000J0D01*
G01*
X167640000Y-60230000D02*
G75*
G02*
X165640000Y-62230000I-2000000J0D01*
G01*
X182500000Y-111720000D02*
X184500000Y-109720000D01*
X185400000Y-54720000D02*
X169640000Y-54720000D01*
X185400000Y-54720000D02*
G75*
G02*
X187400000Y-56720000I0J-2000000D01*
G01*
X185400000Y-109720000D02*
X184500000Y-109720000D01*
X187400000Y-56720000D02*
X187400000Y-107720000D01*
X187400000Y-107720000D02*
G75*
G02*
X185400000Y-109720000I-2000000J0D01*
G01*
M02*
