M48
; DRILL file KiCad 10.0.4-1.fc44app2 date 2026-07-12T09:32:53
; FORMAT={-:-/ absolute / metric / decimal}
; #@! TF.CreationDate,2026-07-12T09:32:53+01:00
; #@! TF.GenerationSoftware,Kicad,Pcbnew,10.0.4-1.fc44app2
; #@! TF.FileFunction,Plated,1,2,PTH
FMAT,2
METRIC
; #@! TA.AperFunction,Plated,PTH,ViaDrill
T1C0.300
; #@! TA.AperFunction,Plated,PTH,ComponentDrill
T2C0.500
; #@! TA.AperFunction,Plated,PTH,ComponentDrill
T3C0.650
; #@! TA.AperFunction,Plated,PTH,ComponentDrill
T4C0.750
; #@! TA.AperFunction,Plated,PTH,ComponentDrill
T5C0.800
; #@! TA.AperFunction,Plated,PTH,ComponentDrill
T6C1.000
; #@! TA.AperFunction,Plated,PTH,ComponentDrill
T7C1.016
; #@! TA.AperFunction,Plated,PTH,ComponentDrill
T8C1.020
; #@! TA.AperFunction,Plated,PTH,ComponentDrill
T9C2.000
%
G90
G05
T1
X123.19Y-81.28
X127.5Y-86.0
X127.5Y-86.0
X130.0Y-95.0
X130.0Y-95.0
X130.0Y-98.0
X132.0Y-87.0
X132.0Y-87.0
X132.0Y-87.0
X132.5Y-79.5
X137.0Y-86.0
X137.0Y-86.0
X167.0Y-73.5
X167.0Y-105.5
X167.5Y-66.5
T2
X173.5Y-109.5
X174.5Y-109.5
X175.5Y-109.5
T3
X164.65Y-109.5
X165.92Y-109.5
X167.19Y-109.5
X168.46Y-109.5
X169.73Y-109.5
X171.0Y-109.5
T4
X135.5Y-78.0
X135.5Y-80.0
X135.5Y-82.0
X135.5Y-84.0
T5
X168.19Y-89.5
X175.81Y-89.5
T6
X120.65Y-60.96
X120.65Y-63.5
X120.65Y-66.04
X120.65Y-68.58
X120.65Y-71.12
X120.65Y-73.66
X120.65Y-76.2
X120.65Y-78.74
X120.65Y-81.28
X120.65Y-83.82
X120.65Y-86.36
X120.65Y-88.9
X120.65Y-91.44
X120.65Y-93.98
X120.65Y-96.52
X120.65Y-99.06
X120.65Y-101.6
X120.65Y-104.14
X120.65Y-106.68
X123.19Y-60.96
X123.19Y-63.5
X123.19Y-66.04
X123.19Y-68.58
X123.19Y-71.12
X123.19Y-73.66
X123.19Y-76.2
X123.19Y-78.74
X123.19Y-81.28
X123.19Y-83.82
X123.19Y-86.36
X123.19Y-88.9
X123.19Y-91.44
X123.19Y-93.98
X123.19Y-96.52
X123.19Y-99.06
X123.19Y-101.6
X123.19Y-104.14
X123.19Y-106.68
X134.0Y-68.96
X134.0Y-71.5
X148.69Y-64.5
X151.23Y-64.5
X153.77Y-64.5
X156.31Y-64.5
X181.61Y-60.96
X181.61Y-63.5
X181.61Y-66.04
X181.61Y-68.58
X181.61Y-71.12
X181.61Y-73.66
X181.61Y-76.2
X181.61Y-78.74
X181.61Y-81.28
X181.61Y-83.82
X181.61Y-86.36
X181.61Y-88.9
X181.61Y-91.44
X181.61Y-93.98
X181.61Y-96.52
X181.61Y-99.06
X181.61Y-101.6
X181.61Y-104.14
X181.61Y-106.68
X184.15Y-60.96
X184.15Y-63.5
X184.15Y-66.04
X184.15Y-68.58
X184.15Y-71.12
X184.15Y-73.66
X184.15Y-76.2
X184.15Y-78.74
X184.15Y-81.28
X184.15Y-83.82
X184.15Y-86.36
X184.15Y-88.9
X184.15Y-91.44
X184.15Y-93.98
X184.15Y-96.52
X184.15Y-99.06
X184.15Y-101.6
X184.15Y-104.14
X184.15Y-106.68
T7
X141.0Y-70.72
X141.0Y-73.26
X141.0Y-75.8
X141.0Y-78.34
X141.0Y-80.88
X141.0Y-83.42
X141.0Y-85.96
X141.0Y-88.5
X143.84Y-105.0
X146.38Y-105.0
X148.92Y-105.0
X151.46Y-105.0
X154.0Y-105.0
X156.54Y-105.0
X159.08Y-105.0
X161.62Y-105.0
X163.86Y-70.72
X163.86Y-73.26
X163.86Y-75.8
X163.86Y-78.34
X163.86Y-80.88
X163.86Y-83.42
X163.86Y-85.96
X163.86Y-88.5
T8
X148.783Y-109.078
X151.323Y-109.078
X153.863Y-109.078
X156.403Y-109.078
T9
X141.5Y-42.0
X163.5Y-42.0
M30
