%TF.GenerationSoftware,KiCad,Pcbnew,10.0.4-1.fc44app2*%
%TF.CreationDate,2026-07-11T21:40:21+01:00*%
%TF.ProjectId,nucleo_shield_pcb,6e75636c-656f-45f7-9368-69656c645f70,rev?*%
%TF.SameCoordinates,Original*%
%TF.FileFunction,Soldermask,Top*%
%TF.FilePolarity,Negative*%
%FSLAX46Y46*%
G04 Gerber Fmt 4.6, Leading zero omitted, Abs format (unit mm)*
G04 Created by KiCad (PCBNEW 10.0.4-1.fc44app2) date 2026-07-11 21:40:21*
%MOMM*%
%LPD*%
G01*
G04 APERTURE LIST*
G04 Aperture macros list*
%AMRoundRect*
0 Rectangle with rounded corners*
0 $1 Rounding radius*
0 $2 $3 $4 $5 $6 $7 $8 $9 X,Y pos of 4 corners*
0 Add a 4 corners polygon primitive as box body*
4,1,4,$2,$3,$4,$5,$6,$7,$8,$9,$2,$3,0*
0 Add four circle primitives for the rounded corners*
1,1,$1+$1,$2,$3*
1,1,$1+$1,$4,$5*
1,1,$1+$1,$6,$7*
1,1,$1+$1,$8,$9*
0 Add four rect primitives between the rounded corners*
20,1,$1+$1,$2,$3,$4,$5,0*
20,1,$1+$1,$4,$5,$6,$7,0*
20,1,$1+$1,$6,$7,$8,$9,0*
20,1,$1+$1,$8,$9,$2,$3,0*%
G04 Aperture macros list end*
%ADD10C,3.200000*%
%ADD11C,3.204000*%
%ADD12C,1.712000*%
%ADD13RoundRect,0.102000X0.754000X0.754000X-0.754000X0.754000X-0.754000X-0.754000X0.754000X-0.754000X0*%
%ADD14RoundRect,0.250000X0.400000X-0.525000X0.400000X0.525000X-0.400000X0.525000X-0.400000X-0.525000X0*%
%ADD15C,1.734000*%
%ADD16R,1.000000X1.000000*%
%ADD17C,1.000000*%
%ADD18RoundRect,0.250000X0.550000X0.550000X-0.550000X0.550000X-0.550000X-0.550000X0.550000X-0.550000X0*%
%ADD19C,1.600000*%
%ADD20R,1.700000X1.700000*%
%ADD21C,1.700000*%
%ADD22RoundRect,0.102000X0.762000X0.762000X-0.762000X0.762000X-0.762000X-0.762000X0.762000X-0.762000X0*%
%ADD23O,3.252000X1.728000*%
%ADD24R,0.850000X0.850000*%
%ADD25C,0.850000*%
%ADD26C,1.728000*%
%ADD27RoundRect,0.250000X-0.625000X0.350000X-0.625000X-0.350000X0.625000X-0.350000X0.625000X0.350000X0*%
%ADD28O,1.750000X1.200000*%
G04 APERTURE END LIST*
D10*
%TO.C,H2*%
X176530000Y-58420000D03*
%TD*%
%TO.C,H3*%
X128270000Y-57150000D03*
%TD*%
%TO.C,H4*%
X133350000Y-109220000D03*
%TD*%
D11*
%TO.C,U4*%
X163500000Y-42000000D03*
X141500000Y-42000000D03*
D12*
X148690000Y-64500000D03*
X151230000Y-64500000D03*
X153770000Y-64500000D03*
D13*
X156310000Y-64500000D03*
%TD*%
D14*
%TO.C,SW2*%
X169750000Y-100980000D03*
X169750000Y-93020000D03*
X174250000Y-100980000D03*
X174250000Y-93020000D03*
%TD*%
D15*
%TO.C,U3*%
X148783456Y-109077753D03*
X151323456Y-109077753D03*
X153863456Y-109077753D03*
X156403456Y-109077753D03*
%TD*%
D16*
%TO.C,J6*%
X164650000Y-109500000D03*
D17*
X165920000Y-109500000D03*
X167190000Y-109500000D03*
X168460000Y-109500000D03*
X169730000Y-109500000D03*
X171000000Y-109500000D03*
%TD*%
D18*
%TO.C,D2*%
X175810000Y-89500000D03*
D19*
X168190000Y-89500000D03*
%TD*%
D14*
%TO.C,SW1*%
X130086600Y-100980000D03*
X130086600Y-93020000D03*
X134586600Y-100980000D03*
X134586600Y-93020000D03*
%TD*%
%TO.C,SW3*%
X169175000Y-72905000D03*
X169175000Y-64945000D03*
X173675000Y-72905000D03*
X173675000Y-64945000D03*
%TD*%
D20*
%TO.C,J3*%
X134000000Y-68960000D03*
D21*
X134000000Y-71500000D03*
%TD*%
D22*
%TO.C,U1*%
X163860000Y-88500000D03*
D23*
X163860000Y-85960000D03*
X163860000Y-83420000D03*
X163860000Y-80880000D03*
D22*
X163860000Y-78340000D03*
D23*
X163860000Y-75800000D03*
X163860000Y-73260000D03*
X163860000Y-70720000D03*
X141000000Y-70720000D03*
D22*
X141000000Y-73260000D03*
D23*
X141000000Y-75800000D03*
X141000000Y-78340000D03*
X141000000Y-80880000D03*
X141000000Y-83420000D03*
X141000000Y-85960000D03*
X141000000Y-88500000D03*
%TD*%
D24*
%TO.C,J5*%
X173500000Y-109500000D03*
D25*
X174500000Y-109500000D03*
X175500000Y-109500000D03*
%TD*%
D20*
%TO.C,J2*%
X181610000Y-60960000D03*
D21*
X184150000Y-60960000D03*
X181610000Y-63500000D03*
X184150000Y-63500000D03*
X181610000Y-66040000D03*
X184150000Y-66040000D03*
X181610000Y-68580000D03*
X184150000Y-68580000D03*
X181610000Y-71120000D03*
X184150000Y-71120000D03*
X181610000Y-73660000D03*
X184150000Y-73660000D03*
X181610000Y-76200000D03*
X184150000Y-76200000D03*
X181610000Y-78740000D03*
X184150000Y-78740000D03*
X181610000Y-81280000D03*
X184150000Y-81280000D03*
X181610000Y-83820000D03*
X184150000Y-83820000D03*
X181610000Y-86360000D03*
X184150000Y-86360000D03*
X181610000Y-88900000D03*
X184150000Y-88900000D03*
X181610000Y-91440000D03*
X184150000Y-91440000D03*
X181610000Y-93980000D03*
X184150000Y-93980000D03*
X181610000Y-96520000D03*
X184150000Y-96520000D03*
X181610000Y-99060000D03*
X184150000Y-99060000D03*
X181610000Y-101600000D03*
X184150000Y-101600000D03*
X181610000Y-104140000D03*
X184150000Y-104140000D03*
X181610000Y-106680000D03*
X184150000Y-106680000D03*
%TD*%
D22*
%TO.C,U2*%
X161620000Y-105000000D03*
D26*
X159080000Y-105000000D03*
X156540000Y-105000000D03*
X154000000Y-105000000D03*
X151460000Y-105000000D03*
X148920000Y-105000000D03*
X146380000Y-105000000D03*
X143840000Y-105000000D03*
%TD*%
D20*
%TO.C,J1*%
X120650000Y-60960000D03*
D21*
X123190000Y-60960000D03*
X120650000Y-63500000D03*
X123190000Y-63500000D03*
X120650000Y-66040000D03*
X123190000Y-66040000D03*
X120650000Y-68580000D03*
X123190000Y-68580000D03*
X120650000Y-71120000D03*
X123190000Y-71120000D03*
X120650000Y-73660000D03*
X123190000Y-73660000D03*
X120650000Y-76200000D03*
X123190000Y-76200000D03*
X120650000Y-78740000D03*
X123190000Y-78740000D03*
X120650000Y-81280000D03*
X123190000Y-81280000D03*
X120650000Y-83820000D03*
X123190000Y-83820000D03*
X120650000Y-86360000D03*
X123190000Y-86360000D03*
X120650000Y-88900000D03*
X123190000Y-88900000D03*
X120650000Y-91440000D03*
X123190000Y-91440000D03*
X120650000Y-93980000D03*
X123190000Y-93980000D03*
X120650000Y-96520000D03*
X123190000Y-96520000D03*
X120650000Y-99060000D03*
X123190000Y-99060000D03*
X120650000Y-101600000D03*
X123190000Y-101600000D03*
X120650000Y-104140000D03*
X123190000Y-104140000D03*
X120650000Y-106680000D03*
X123190000Y-106680000D03*
%TD*%
D27*
%TO.C,J4*%
X135500000Y-78000000D03*
D28*
X135500000Y-80000000D03*
X135500000Y-82000000D03*
X135500000Y-84000000D03*
%TD*%
M02*
